<svg width="24" height="25" viewBox="0 0 24 25" fill="none" xmlns="http://www.w3.org/2000/svg">
<path d="M19.4318 13.4068C19.4718 13.0868 19.5018 12.7668 19.5018 12.4268C19.5018 12.0868 19.4718 11.7668 19.4318 11.4468L21.5418 9.79676C21.7318 9.64676 21.7818 9.37676 21.6618 9.15676L19.6618 5.69676C19.5718 5.53676 19.4018 5.44676 19.2218 5.44676C19.1618 5.44676 19.1018 5.45676 19.0518 5.47676L16.5618 6.47676C16.0418 6.07676 15.4818 5.74676 14.8718 5.49676L14.4918 2.84676C14.4618 2.60676 14.2518 2.42676 14.0018 2.42676H10.0018C9.75179 2.42676 9.54179 2.60676 9.51179 2.84676L9.13179 5.49676C8.52179 5.74676 7.96179 6.08676 7.44179 6.47676L4.95179 5.47676C4.89179 5.45676 4.83179 5.44676 4.77179 5.44676C4.60179 5.44676 4.43179 5.53676 4.34179 5.69676L2.34179 9.15676C2.21179 9.37676 2.27179 9.64676 2.46179 9.79676L4.57179 11.4468C4.53179 11.7668 4.50179 12.0968 4.50179 12.4268C4.50179 12.7568 4.53179 13.0868 4.57179 13.4068L2.46179 15.0568C2.27179 15.2068 2.22179 15.4768 2.34179 15.6968L4.34179 19.1568C4.43179 19.3168 4.60179 19.4068 4.78179 19.4068C4.84179 19.4068 4.90179 19.3968 4.95179 19.3768L7.44179 18.3768C7.96179 18.7768 8.52179 19.1068 9.13179 19.3568L9.51179 22.0068C9.54179 22.2468 9.75179 22.4268 10.0018 22.4268H14.0018C14.2518 22.4268 14.4618 22.2468 14.4918 22.0068L14.8718 19.3568C15.4818 19.1068 16.0418 18.7668 16.5618 18.3768L19.0518 19.3768C19.1118 19.3968 19.1718 19.4068 19.2318 19.4068C19.4018 19.4068 19.5718 19.3168 19.6618 19.1568L21.6618 15.6968C21.7818 15.4768 21.7318 15.2068 21.5418 15.0568L19.4318 13.4068ZM17.4518 11.6968C17.4918 12.0068 17.5018 12.2168 17.5018 12.4268C17.5018 12.6368 17.4818 12.8568 17.4518 13.1568L17.3118 14.2868L18.2018 14.9868L19.2818 15.8268L18.5818 17.0368L17.3118 16.5268L16.2718 16.1068L15.3718 16.7868C14.9418 17.1068 14.5318 17.3468 14.1218 17.5168L13.0618 17.9468L12.9018 19.0768L12.7018 20.4268H11.3018L10.9518 17.9468L9.89179 17.5168C9.46179 17.3368 9.06179 17.1068 8.66179 16.8068L7.75179 16.1068L6.69179 16.5368L5.42179 17.0468L4.72179 15.8368L5.80179 14.9968L6.69179 14.2968L6.55179 13.1668C6.52179 12.8568 6.50179 12.6268 6.50179 12.4268C6.50179 12.2268 6.52179 11.9968 6.55179 11.6968L6.69179 10.5668L5.80179 9.86676L4.72179 9.02676L5.42179 7.81676L6.69179 8.32676L7.73179 8.74676L8.63179 8.06676C9.06179 7.74676 9.47179 7.50676 9.88179 7.33676L10.9418 6.90676L11.1018 5.77676L11.3018 4.42676H12.6918L13.0418 6.90676L14.1018 7.33676C14.5318 7.51676 14.9318 7.74676 15.3318 8.04676L16.2418 8.74676L17.3018 8.31676L18.5718 7.80676L19.2718 9.01676L18.2018 9.86676L17.3118 10.5668L17.4518 11.6968ZM12.0018 8.42676C9.79179 8.42676 8.00179 10.2168 8.00179 12.4268C8.00179 14.6368 9.79179 16.4268 12.0018 16.4268C14.2118 16.4268 16.0018 14.6368 16.0018 12.4268C16.0018 10.2168 14.2118 8.42676 12.0018 8.42676ZM12.0018 14.4268C10.9018 14.4268 10.0018 13.5268 10.0018 12.4268C10.0018 11.3268 10.9018 10.4268 12.0018 10.4268C13.1018 10.4268 14.0018 11.3268 14.0018 12.4268C14.0018 13.5268 13.1018 14.4268 12.0018 14.4268Z" fill="#FFBA00"/>
</svg>
